<svg xmlns="http://www.w3.org/2000/svg" width="48" height="48" fill="none"><g fill="#FF5A30" clip-path="url(#a)"><path d="M16.62 9.248H8.228a1.406 1.406 0 1 0 0 2.813h8.392a1.406 1.406 0 0 0 0-2.813ZM16.62 14.873H8.228a1.406 1.406 0 1 0 0 2.813h8.392a1.406 1.406 0 0 0 0-2.813ZM16.62 20.498H8.228a1.406 1.406 0 1 0 0 2.813h8.392a1.406 1.406 0 0 0 0-2.813ZM16.62 26.123H8.228a1.406 1.406 0 1 0 0 2.813h8.392a1.406 1.406 0 0 0 0-2.813ZM16.62 31.844H8.228a1.406 1.406 0 0 0 0 2.812h8.392a1.406 1.406 0 0 0 0-2.812ZM21.343 12.06h8.393a1.406 1.406 0 1 0 0-2.812h-8.393a1.406 1.406 0 0 0 0 2.813ZM21.343 17.686h8.393a1.406 1.406 0 1 0 0-2.813h-8.393a1.406 1.406 0 0 0 0 2.813ZM26.791 21.904c0-.776-.63-1.406-1.406-1.406h-4.042a1.406 1.406 0 0 0 0 2.813h4.042c.777 0 1.406-.63 1.406-1.407ZM40.113 32.436a1.406 1.406 0 0 0-1.976.217l-3.622 4.516-2.243-1.625a1.406 1.406 0 1 0-1.65 2.278l3.327 2.41a1.402 1.402 0 0 0 1.922-.26l4.46-5.559a1.406 1.406 0 0 0-.218-1.977Z"/><path d="M43.667 28.12a11.598 11.598 0 0 0-6.735-3.385V5.663A5.67 5.67 0 0 0 31.268 0H6.695a5.67 5.67 0 0 0-5.664 5.663V38.24a5.67 5.67 0 0 0 5.664 5.664h19.764A11.576 11.576 0 0 0 35.34 48c6.44 0 11.679-5.243 11.679-11.687a11.62 11.62 0 0 0-3.352-8.194ZM3.844 38.239V5.663c0-1.571 1.279-2.85 2.851-2.85h24.573c1.572 0 2.851 1.279 2.851 2.85V24.69c-5.868.613-10.458 5.591-10.458 11.623 0 1.672.349 3.288 1.018 4.777H6.695a2.854 2.854 0 0 1-2.851-2.851Zm31.496 6.949a8.8 8.8 0 0 1-7.084-3.538 8.802 8.802 0 0 1-1.783-5.337c0-4.893 3.978-8.874 8.867-8.874l.139.001h.022a8.81 8.81 0 0 1 6.16 2.65 8.826 8.826 0 0 1 2.545 6.223c0 4.893-3.977 8.874-8.866 8.874Z"/></g><defs><clipPath id="a"><path fill="#fff" d="M0 0h48v48H0z"/></clipPath></defs></svg>