<svg aria-hidden="true" style="position: absolute; width: 0; height: 0; overflow: hidden;" version="1.1" xmlns="http://www.w3.org/2000/svg" xmlns:xlink="http://www.w3.org/1999/xlink">
<defs>
<symbol id="whatsapp" viewBox="0 0 32 32">
<path fill="#fff" style="fill: var(--color1, #fff)" opacity="0.6" d="M29.333 15.656c0 7.175-5.86 12.991-13.091 12.991-0.006 0-0.014 0-0.022 0-2.313 0-4.486-0.599-6.373-1.65l0.067 0.034-7.248 2.303 2.363-6.969c-1.18-1.906-1.879-4.216-1.879-6.691 0-0.006 0-0.011 0-0.017v0.001c0-7.176 5.863-12.991 13.092-12.991 7.231 0 13.091 5.816 13.091 12.989zM16.243 4.736c-6.069 0-11.007 4.899-11.007 10.92 0 2.391 0.779 4.603 2.097 6.404l-1.376 4.056 4.229-1.345c1.701 1.132 3.792 1.807 6.040 1.807 0.006 0 0.011 0 0.017 0h-0.001c6.068 0 11.007-4.899 11.007-10.92 0-6.023-4.937-10.921-11.007-10.921zM22.853 18.648c-0.080-0.133-0.295-0.213-0.616-0.371-0.32-0.16-1.899-0.931-2.192-1.036-0.293-0.107-0.509-0.16-0.723 0.16-0.213 0.317-0.828 1.035-1.016 1.247-0.187 0.213-0.373 0.24-0.696 0.080-0.32-0.159-1.353-0.495-2.58-1.58-0.953-0.844-1.597-1.885-1.785-2.204-0.187-0.32-0.019-0.491 0.141-0.649 0.144-0.143 0.32-0.372 0.481-0.557 0.16-0.187 0.213-0.32 0.32-0.532 0.108-0.213 0.055-0.397-0.027-0.557-0.080-0.16-0.721-1.727-0.989-2.364-0.267-0.637-0.533-0.531-0.721-0.531-0.187 0-0.4-0.027-0.615-0.027-0.213 0-0.563 0.080-0.856 0.399s-1.123 1.088-1.123 2.655c0 1.567 1.149 3.080 1.309 3.293 0.16 0.212 2.22 3.532 5.481 4.807 3.263 1.275 3.263 0.849 3.852 0.796 0.587-0.053 1.897-0.771 2.167-1.513 0.267-0.744 0.267-1.381 0.187-1.515z"></path>
</symbol>
<symbol id="messanger" viewBox="0 0 32 32">
<path fill="#fff" style="fill: var(--color1, #fff)" opacity="0.6" d="M16 2.667c-7.363 0-13.333 5.527-13.333 12.345 0 3.884 1.939 7.349 4.968 9.613v4.708l4.54-2.492c1.212 0.336 2.495 0.517 3.825 0.517 7.364 0 13.333-5.527 13.333-12.345s-5.969-12.347-13.333-12.347zM17.325 19.292l-3.395-3.621-6.627 3.621 7.289-7.737 3.479 3.621 6.541-3.621-7.288 7.737z"></path>
</symbol>
<symbol id="facebook" viewBox="0 0 32 32">
<path fill="#fff" style="fill: var(--color1, #fff)" opacity="0.6" d="M23.417 1.34l-3.703-0.007c-4.16 0-6.849 2.833-6.849 7.219v3.329h-3.723c-0.323 0-0.583 0.267-0.583 0.597v4.823c0 0.331 0.261 0.599 0.583 0.599h3.723v12.168c0 0.331 0.26 0.599 0.583 0.599h4.857c0.323-0.004 0.583-0.267 0.583-0.591 0-0.003-0-0.006-0-0.008v0-12.168h4.353c0.321 0 0.581-0.267 0.581-0.599l0.003-4.823c0-0 0-0 0-0 0-0.164-0.065-0.313-0.171-0.423l0 0c-0.105-0.108-0.251-0.175-0.413-0.175-0 0-0 0-0.001 0h-4.353v-2.823c0-1.356 0.315-2.044 2.033-2.044h2.495c0.321 0 0.583-0.269 0.583-0.6v-4.476c0-0.002 0-0.004 0-0.007 0-0.323-0.259-0.585-0.581-0.591h-0z"></path>
</symbol>
<symbol id="twitter" viewBox="0 0 32 32">
<path fill="#fff" style="fill: var(--color1, #fff)" opacity="0.6" d="M30 7.696c-0.961 0.42-2.076 0.725-3.243 0.861l-0.055 0.005c1.176-0.675 2.068-1.733 2.513-3.001l0.012-0.039c-1.053 0.606-2.276 1.069-3.574 1.321l-0.075 0.012c-1.061-1.072-2.532-1.736-4.159-1.736-0.012 0-0.024 0-0.036 0h0.002c-3.172 0-5.744 2.463-5.744 5.499 0 0.431 0.051 0.851 0.149 1.253-4.773-0.231-9.005-2.42-11.839-5.747-0.488 0.785-0.777 1.738-0.777 2.758 0 0.002 0 0.004 0 0.006v-0c0 1.908 1.016 3.592 2.555 4.577-0.956-0.031-1.847-0.283-2.632-0.706l0.032 0.016v0.069c0 2.663 1.98 4.887 4.605 5.392-0.48 0.124-0.988 0.193-1.513 0.193-0.382-0-0.755-0.037-1.116-0.109l0.036 0.006c0.731 2.187 2.851 3.776 5.364 3.82-1.951 1.468-4.415 2.351-7.085 2.351-0.017 0-0.034-0-0.051-0h0.003c-0.464 0-0.92-0.027-1.371-0.076 2.494 1.554 5.523 2.475 8.766 2.475 0.013 0 0.027-0 0.040-0h-0.002c10.567 0 16.343-8.38 16.343-15.648l-0.020-0.712c1.131-0.778 2.084-1.72 2.85-2.805l0.024-0.035z"></path>
</symbol>
<symbol id="youtube" viewBox="0 0 32 32">
<path fill="#fff" style="fill: var(--color1, #fff)" opacity="0.6" d="M28.521 5.485c-2.504-0.685-12.521-0.685-12.521-0.685s-10.016 0-12.52 0.659l-0.029 0.007c-1.346 0.394-2.404 1.461-2.792 2.841-0.659 2.503-0.659 7.695-0.659 7.695s0 5.22 0.659 7.697l0.007 0.028c0.375 1.349 1.438 2.411 2.815 2.793 2.529 0.685 12.52 0.685 12.52 0.685s10.016 0 12.52-0.66l0.028-0.007c1.349-0.375 2.411-1.437 2.793-2.813 0.659-2.504 0.659-7.697 0.659-7.697s0.027-5.219-0.659-7.723l-0.007-0.028c-0.375-1.348-1.438-2.41-2.815-2.792zM21.14 16.003l-8.329 4.797v-9.595l8.329 4.797z"></path>
</symbol>
</defs>
</svg>
