<svg xmlns="http://www.w3.org/2000/svg" aria-hidden="true" style="position:absolute;width:0;height:0;overflow:hidden"><defs><symbol id="facebook" viewBox="0 0 32 32"><path d="m23.417 1.339-3.703-.006c-4.16 0-6.849 2.833-6.849 7.219v3.328H9.142a.59.59 0 0 0-.582.598v4.823c0 .33.261.598.582.598h3.723v12.169a.59.59 0 0 0 .582.598h4.858a.59.59 0 0 0 .582-.598V17.899h4.353a.59.59 0 0 0 .582-.598l.002-4.823c0-.159-.062-.311-.171-.423s-.258-.175-.412-.175h-4.355V9.058c0-1.356.315-2.045 2.034-2.045l2.495-.001a.59.59 0 0 0 .582-.598V1.936a.59.59 0 0 0-.581-.598z"/></symbol><symbol id="instagram" viewBox="0 0 32 32"><path d="M29.307 10.507c-.062-1.417-.292-2.391-.62-3.235a6.52 6.52 0 0 0-1.542-2.365 6.574 6.574 0 0 0-2.36-1.537c-.849-.328-1.818-.557-3.235-.62-1.428-.068-1.881-.083-5.501-.083s-4.074.016-5.496.078c-1.417.062-2.391.292-3.235.62a6.52 6.52 0 0 0-2.365 1.542 6.574 6.574 0 0 0-1.537 2.36c-.328.849-.557 1.818-.62 3.235-.068 1.427-.083 1.881-.083 5.501s.016 4.074.078 5.496c.062 1.417.292 2.391.62 3.235a6.585 6.585 0 0 0 1.542 2.365 6.574 6.574 0 0 0 2.36 1.537c.849.328 1.818.557 3.235.62 1.422.063 1.875.078 5.496.078s4.074-.015 5.496-.078c1.417-.062 2.391-.292 3.235-.62a6.822 6.822 0 0 0 3.902-3.902c.328-.849.557-1.818.62-3.235.063-1.422.078-1.875.078-5.496s-.005-4.074-.068-5.496zm-2.401 10.887c-.057 1.302-.276 2.006-.459 2.474a4.422 4.422 0 0 1-2.532 2.532c-.469.182-1.177.401-2.475.458-1.406.063-1.828.078-5.386.078s-3.985-.015-5.387-.078c-1.302-.057-2.006-.276-2.474-.458a4.103 4.103 0 0 1-1.531-.995 4.143 4.143 0 0 1-.995-1.531c-.182-.469-.401-1.177-.458-2.474-.063-1.407-.078-1.829-.078-5.387s.015-3.985.078-5.386c.057-1.302.276-2.006.458-2.474a4.066 4.066 0 0 1 1-1.532 4.143 4.143 0 0 1 1.531-.995c.469-.182 1.177-.401 2.474-.458 1.407-.062 1.829-.078 5.386-.078 3.563 0 3.985.016 5.387.078 1.302.057 2.006.276 2.474.458a4.09 4.09 0 0 1 1.531.995c.443.432.781.953.995 1.532.182.469.401 1.177.459 2.474.062 1.407.078 1.828.078 5.386s-.016 3.975-.078 5.381z"/><path d="M16.049 9.152c-3.782 0-6.85 3.068-6.85 6.85s3.068 6.85 6.85 6.85c3.782 0 6.85-3.068 6.85-6.85s-3.068-6.85-6.85-6.85zm0 11.294a4.445 4.445 0 0 1 0-8.888 4.444 4.444 0 0 1 0 8.888zM24.77 8.881a1.6 1.6 0 1 1-3.198 0 1.6 1.6 0 0 1 3.198 0z"/></symbol><symbol id="linked-in" viewBox="0 0 32 32"><path d="m29.327 29.333.007-.001v-9.78c0-4.785-1.03-8.47-6.623-8.47-2.689 0-4.493 1.476-5.23 2.874h-.078v-2.428H12.1v17.803h5.522v-8.816c0-2.321.44-4.566 3.315-4.566 2.832 0 2.874 2.649 2.874 4.715v8.668h5.517zM3.107 11.53h5.529v17.803H3.107V11.53zM5.869 2.667c-1.768 0-3.202 1.434-3.202 3.202s1.434 3.232 3.202 3.232 3.202-1.464 3.202-3.232a3.204 3.204 0 0 0-3.202-3.202z"/></symbol><symbol id="messanger" viewBox="0 0 32 32"><path d="M16 2.667c-7.363 0-13.333 5.527-13.333 12.345 0 3.885 1.938 7.35 4.968 9.613v4.708l4.54-2.492c1.212.335 2.495.517 3.825.517 7.363 0 13.333-5.527 13.333-12.345S23.363 2.666 16 2.666zm1.325 16.625L13.93 15.67l-6.625 3.622 7.288-7.737 3.478 3.622 6.542-3.622-7.288 7.737z"/></symbol><symbol id="twitter" viewBox="0 0 32 32"><path d="M30 7.696a11.866 11.866 0 0 1-3.298.866 5.575 5.575 0 0 0 2.525-3.041 11.895 11.895 0 0 1-3.65 1.335 5.847 5.847 0 0 0-4.192-1.737c-3.172 0-5.744 2.463-5.744 5.498 0 .431.051.851.149 1.253-4.773-.23-9.005-2.419-11.838-5.746a5.284 5.284 0 0 0-.777 2.764c0 1.908 1.015 3.592 2.555 4.577a5.941 5.941 0 0 1-2.602-.69v.069c0 2.664 1.981 4.887 4.607 5.393a6.06 6.06 0 0 1-1.513.193c-.371 0-.73-.035-1.081-.102.731 2.186 2.852 3.776 5.365 3.82-1.965 1.474-4.442 2.351-7.133 2.351-.464 0-.92-.027-1.37-.075a16.762 16.762 0 0 0 8.804 2.475c10.566 0 16.342-8.38 16.342-15.648l-.019-.712a11.216 11.216 0 0 0 2.873-2.841z"/></symbol><symbol id="whatsapp" viewBox="0 0 32 32"><path d="M29.333 15.657c0 7.174-5.86 12.99-13.091 12.99a13.12 13.12 0 0 1-6.328-1.616l-7.248 2.303 2.363-6.969a12.852 12.852 0 0 1-1.879-6.707c0-7.174 5.861-12.99 13.091-12.99s13.091 5.816 13.091 12.99zM16.242 4.735c-6.069 0-11.006 4.899-11.006 10.921 0 2.39.779 4.603 2.097 6.403l-1.375 4.056 4.23-1.344a11.001 11.001 0 0 0 6.055 1.807c6.068 0 11.006-4.899 11.006-10.921S22.312 4.735 16.242 4.735zm6.611 13.913c-.081-.132-.295-.212-.615-.371s-1.899-.93-2.193-1.036c-.294-.106-.509-.159-.722.159s-.829 1.036-1.016 1.248c-.187.213-.374.24-.695.08s-1.354-.496-2.58-1.58c-.954-.844-1.598-1.886-1.785-2.205s-.02-.491.141-.649c.145-.143.321-.372.481-.558s.214-.319.321-.531c.107-.212.054-.398-.027-.558s-.722-1.726-.99-2.364c-.267-.637-.534-.531-.722-.531s-.401-.027-.615-.027-.562.08-.856.398c-.294.319-1.123 1.089-1.123 2.656s1.149 3.081 1.31 3.293c.16.212 2.219 3.532 5.481 4.807s3.263.849 3.851.796c.588-.053 1.898-.77 2.167-1.513.267-.744.267-1.382.187-1.514z"/></symbol><symbol id="youtube" viewBox="0 0 32 32"><path d="M28.52 5.485C26.016 4.8 15.999 4.8 15.999 4.8s-10.016 0-12.521.659c-1.344.369-2.451 1.476-2.82 2.847-.659 2.504-.659 7.697-.659 7.697s0 5.219.659 7.697a4.011 4.011 0 0 0 2.821 2.821c2.53.685 12.521.685 12.521.685s10.016 0 12.52-.659a4.012 4.012 0 0 0 2.821-2.82C32 21.223 32 16.03 32 16.03s.026-5.219-.659-7.723a4.012 4.012 0 0 0-2.82-2.821zm-7.38 10.517-8.329 4.797v-9.595l8.329 4.797z"/></symbol><symbol id="reply" viewBox="0 0 16 17"><path d="m.667 7.828 6.096-6.662v3.975h1.295c4.019 0 7.276 3.247 7.276 7.252v2.106l-.576-.628a10.344 10.344 0 0 0-7.629-3.355h-.366v3.974L.667 7.828Z"/></symbol><symbol id="convert" viewBox="0 0 32 32">
<path d="M2.8 2.667c0.736 0 1.333 0.597 1.333 1.333v0 5.915c2.259-4.337 6.721-7.248 11.863-7.248 0.001 0 0.003 0 0.004 0h-0c5.807 0 10.744 3.712 12.573 8.889 0.056 0.142 0.089 0.307 0.089 0.48 0 0.736-0.597 1.333-1.333 1.333-0.59 0-1.091-0.384-1.267-0.916l-0.003-0.009c-1.511-4.178-5.443-7.11-10.060-7.11-3.928 0-7.36 2.122-9.213 5.282l-0.027 0.050h4.040c0.736 0 1.333 0.597 1.333 1.333s-0.597 1.333-1.333 1.333v0h-8c-0.736 0-1.333-0.597-1.333-1.333v0-8c0-0.736 0.597-1.333 1.333-1.333v0zM4.236 18.743c0.132-0.048 0.285-0.076 0.444-0.076 0.577 0 1.069 0.367 1.254 0.88l0.003 0.009c1.511 4.178 5.443 7.11 10.060 7.11 3.928 0 7.36-2.122 9.213-5.282l0.027-0.050h-4.040c-0.736 0-1.333-0.597-1.333-1.333s0.597-1.333 1.333-1.333v0h8c0.736 0 1.333 0.597 1.333 1.333v0 8c0 0.736-0.597 1.333-1.333 1.333s-1.333-0.597-1.333-1.333v0-5.915c-2.259 4.337-6.721 7.248-11.863 7.248-0.001 0-0.003 0-0.004 0h0c-5.808 0-10.745-3.712-12.573-8.889-0.048-0.132-0.076-0.285-0.076-0.444 0-0.577 0.366-1.068 0.879-1.254l0.009-0.003z"></path></symbol></defs></svg>