<svg xmlns="http://www.w3.org/2000/svg" aria-hidden="true" style="position:absolute;width:0;height:0;overflow:hidden"><defs><symbol id="reply" viewBox="0 0 16 17"><path d="m.667 7.828 6.096-6.662v3.975h1.295c4.019 0 7.276 3.247 7.276 7.252v2.106l-.576-.628a10.344 10.344 0 0 0-7.629-3.355h-.366v3.974L.667 7.828Z"/></symbol><symbol id="whatsapp" viewBox="0 0 32 32"><path  d="M29.333 15.656c0 7.175-5.86 12.991-13.091 12.991-0.006 0-0.014 0-0.022 0-2.313 0-4.486-0.599-6.373-1.65l0.067 0.034-7.248 2.303 2.363-6.969c-1.18-1.906-1.879-4.216-1.879-6.691 0-0.006 0-0.011 0-0.017v0.001c0-7.176 5.863-12.991 13.092-12.991 7.231 0 13.091 5.816 13.091 12.989zM16.243 4.736c-6.069 0-11.007 4.899-11.007 10.92 0 2.391 0.779 4.603 2.097 6.404l-1.376 4.056 4.229-1.345c1.701 1.132 3.792 1.807 6.040 1.807 0.006 0 0.011 0 0.017 0h-0.001c6.068 0 11.007-4.899 11.007-10.92 0-6.023-4.937-10.921-11.007-10.921zM22.853 18.648c-0.080-0.133-0.295-0.213-0.616-0.371-0.32-0.16-1.899-0.931-2.192-1.036-0.293-0.107-0.509-0.16-0.723 0.16-0.213 0.317-0.828 1.035-1.016 1.247-0.187 0.213-0.373 0.24-0.696 0.080-0.32-0.159-1.353-0.495-2.58-1.58-0.953-0.844-1.597-1.885-1.785-2.204-0.187-0.32-0.019-0.491 0.141-0.649 0.144-0.143 0.32-0.372 0.481-0.557 0.16-0.187 0.213-0.32 0.32-0.532 0.108-0.213 0.055-0.397-0.027-0.557-0.080-0.16-0.721-1.727-0.989-2.364-0.267-0.637-0.533-0.531-0.721-0.531-0.187 0-0.4-0.027-0.615-0.027-0.213 0-0.563 0.080-0.856 0.399s-1.123 1.088-1.123 2.655c0 1.567 1.149 3.080 1.309 3.293 0.16 0.212 2.22 3.532 5.481 4.807 3.263 1.275 3.263 0.849 3.852 0.796 0.587-0.053 1.897-0.771 2.167-1.513 0.267-0.744 0.267-1.381 0.187-1.515z"></symbol><symbol id="messanger" viewBox="0 0 32 32"><path d="M12 2C6.478 2 2 6.145 2 11.259c0 2.913 1.454 5.512 3.726 7.21V22l3.405-1.869c.909.252 1.871.388 2.869.388 5.523 0 10-4.145 10-9.259C22 6.146 17.523 2 12 2Zm.994 12.469-2.546-2.716-4.97 2.716 5.467-5.803 2.609 2.716 4.906-2.716-5.466 5.803Z"/></symbol></defs></svg>
