<svg xmlns="http://www.w3.org/2000/svg" width="48" height="48" fill="none"><path fill="#FF5A30" d="M33.462 33.42v-9.731l5.61-2.323c4.509-1.868 6.658-7.056 4.79-11.566-1.868-4.509-7.056-6.658-11.565-4.79L1.674 17.695l2.535 3.785L0 23.223l3.356 8.101 5.828-2.414 2.535 3.785 13.301-5.51v6.235a5.975 5.975 0 0 0-1.773 4.25 6 6 0 0 0 5.994 5.994c1.66 0 3.165-.678 4.251-1.773H48V33.45H33.492l-.03-.03ZM4.878 27.65l-1.203-2.905 2.13-.882 1.784 2.664-2.711 1.123Zm7.895 1.565L5.92 18.98 33.373 7.608a6.046 6.046 0 0 1 7.89 3.269 6.046 6.046 0 0 1-3.268 7.89L12.773 29.215Zm15.06-3.194 2.817-1.167v6.991a5.984 5.984 0 0 0-2.817 0v-5.824Zm1.408 14.83a3.185 3.185 0 0 1-3.181-3.18 3.185 3.185 0 0 1 3.181-3.182 3.185 3.185 0 0 1 3.182 3.181 3.185 3.185 0 0 1-3.182 3.182Zm5.825-4.589h10.122v2.817H35.066a5.986 5.986 0 0 0 0-2.817Z"/></svg>