<svg xmlns="http://www.w3.org/2000/svg" width="53" height="52" fill="none"><g clip-path="url(#a)"><path fill="#FF5A30" d="M50.977 27.523c.84 0 1.523-.682 1.523-1.523V14.625c0-.841-.682-1.523-1.523-1.523H28.023V3.25c0-.841-.682-1.523-1.523-1.523H10.25c-.841 0-1.523.682-1.523 1.523v9.852H2.023c-.84 0-1.523.682-1.523 1.523V26c0 .841.682 1.523 1.523 1.523h6.704v8.329H2.023c-.84 0-1.523.682-1.523 1.523V48.75c0 .841.682 1.523 1.523 1.523h48.954c.84 0 1.523-.682 1.523-1.523V37.375c0-.841-.682-1.523-1.523-1.523h-6.704v-8.329h6.704Zm-1.524-3.046H36.148v-8.329h13.305v8.329Zm-16.351 0H19.898v-8.329h13.204v8.329ZM11.773 4.773h13.204v8.329H11.773V4.773ZM3.547 24.477v-8.329h13.305v8.329H3.547Zm8.226 3.046h13.204v8.329H11.773v-8.329ZM3.547 38.898h13.305v8.329H3.547v-8.329Zm16.351 0h13.204v8.329H19.898v-8.329Zm29.555 0v8.329H36.148v-8.329h13.305Zm-8.226-3.046H28.023v-8.329h13.204v8.329Z"/></g><defs><clipPath id="a"><path fill="#fff" d="M.5 0h52v52H.5z"/></clipPath></defs></svg>