<svg xmlns="http://www.w3.org/2000/svg" aria-hidden="true" style="position:absolute;width:0;height:0;overflow:hidden"><defs><symbol id="facebook-team" viewBox="0 0 32 32"><path fill="#fff" d="m23.416 1.341-3.702-.006c-4.16 0-6.848 2.832-6.848 7.219v3.328H9.143a.59.59 0 0 0-.582.59v4.83a.59.59 0 0 0 .582.598h3.722v12.17c0 .33.259.597.581.597h4.859a.59.59 0 0 0 .582-.59V17.9h4.352a.59.59 0 0 0 .582-.59v-.008l.003-4.822v-.001a.604.604 0 0 0-.17-.421.575.575 0 0 0-.413-.176h-4.354V9.061c0-1.357.314-2.045 2.032-2.045h2.496c.32 0 .582-.269.582-.6V1.933a.592.592 0 0 0-.582-.592z" style="fill:var(--color1, #fff)"/></symbol><symbol id="twitter-team" viewBox="0 0 32 32"><path fill="#fff" d="M30 7.696c-.961.419-2.076.724-3.242.86l-.055.005a5.607 5.607 0 0 0 2.513-3.001l.012-.039a11.651 11.651 0 0 1-3.575 1.322l-.075.012a5.832 5.832 0 0 0-4.16-1.738h-.034.002c-3.173 0-5.744 2.464-5.744 5.499 0 .43.048.851.147 1.253-4.773-.229-9.005-2.419-11.837-5.747a5.231 5.231 0 0 0-.776 2.756v.009c0 1.909 1.014 3.592 2.554 4.576a5.92 5.92 0 0 1-2.633-.704l.032.016v.067c0 2.664 1.981 4.888 4.608 5.392a6.022 6.022 0 0 1-1.514.194c-.371 0-.73-.035-1.082-.102.731 2.187 2.851 3.776 5.365 3.821a11.766 11.766 0 0 1-7.085 2.351h-.052.003a12.947 12.947 0 0 1-1.428-.081l.058.005c2.494 1.553 5.522 2.474 8.764 2.474h.043-.002c10.566 0 16.341-8.379 16.341-15.648l-.019-.71a11.326 11.326 0 0 0 2.848-2.806l.024-.035z" style="fill:var(--color1, #fff)"/></symbol><symbol id="linked-in" viewBox="0 0 32 32"><path fill="#fff" d="m29.325 29.333.008-.002V19.55c0-4.784-1.03-8.469-6.624-8.469-2.688 0-4.493 1.475-5.23 2.874h-.077v-2.427h-5.306v17.803h5.522v-8.816c0-2.32.44-4.565 3.315-4.565 2.832 0 2.875 2.648 2.875 4.714v8.669h5.515zM3.106 11.53h5.53v17.803H3.105V11.53zm2.761-8.864a3.204 3.204 0 0 0-3.202 3.202C2.665 7.636 4.1 9.1 5.867 9.1c1.768 0 3.203-1.464 3.203-3.232a3.205 3.205 0 0 0-3.203-3.202z" style="fill:var(--color1, #fff)"/></symbol></defs></svg>