<svg xmlns="http://www.w3.org/2000/svg" aria-hidden="true" style="position:absolute;width:0;height:0;overflow:hidden"><defs><symbol id="facebook" viewBox="0 0 17 32"><path fill="#fff" d="M16.819.007 12.779 0C8.241 0 5.308 3.091 5.308 7.875v3.631H1.246a.644.644 0 0 0-.635.653v5.261c0 .36.285.652.635.652h4.062v13.275c0 .361.284.652.635.652h5.299a.644.644 0 0 0 .635-.652V18.072h4.749a.644.644 0 0 0 .635-.652l.002-5.261c0-.173-.067-.339-.186-.461s-.281-.191-.45-.191h-4.751V8.429c0-1.479.343-2.23 2.219-2.23l2.721-.001a.644.644 0 0 0 .635-.652V.661a.643.643 0 0 0-.634-.652z" style="fill:var(--color1, #fff)"/></symbol><symbol id="messanger" viewBox="0 0 32 32"><path fill="#fff" d="M16 0C7.164 0 0 6.632 0 14.814c0 4.662 2.326 8.82 5.962 11.536V32l5.448-2.99c1.454.402 2.994.62 4.59.62 8.836 0 16-6.632 16-14.814S24.836 0 16 0zm1.59 19.95-4.074-4.346-7.95 4.346 8.746-9.284 4.174 4.346 7.85-4.346-8.746 9.284z" style="fill:var(--color1, #fff)"/></symbol><symbol id="twitter" viewBox="0 0 39 32"><path fill="#fff" d="M38.222 4.929a15.838 15.838 0 0 1-4.398 1.155c1.582-.907 2.793-2.345 3.366-4.054a15.839 15.839 0 0 1-4.867 1.78c-1.397-1.427-3.385-2.316-5.59-2.316-4.229 0-7.659 3.284-7.659 7.331 0 .574.068 1.135.198 1.671C12.908 10.19 7.265 7.27 3.488 2.834A7.045 7.045 0 0 0 2.452 6.52c0 2.544 1.353 4.789 3.406 6.103a7.922 7.922 0 0 1-3.469-.92v.092c0 3.552 2.641 6.516 6.143 7.191a8.097 8.097 0 0 1-2.018.257c-.495 0-.973-.047-1.442-.136.975 2.915 3.803 5.035 7.153 5.093-2.62 1.966-5.923 3.134-9.511 3.134-.618 0-1.227-.036-1.827-.101a22.352 22.352 0 0 0 11.739 3.299c14.088 0 21.789-11.174 21.789-20.864l-.026-.949A14.97 14.97 0 0 0 38.22 4.93z" style="fill:var(--color1, #fff)"/></symbol><symbol id="whatsapp" viewBox="0 0 32 32"><path fill="#fff" d="M32 15.588c0 8.609-7.032 15.588-15.709 15.588-2.755 0-5.342-.704-7.594-1.94L0 32l2.836-8.363a15.43 15.43 0 0 1-2.254-8.049C.582 6.979 7.615 0 16.292 0s15.709 6.979 15.709 15.588zM16.291 2.482c-7.283 0-13.207 5.879-13.207 13.105 0 2.868.935 5.523 2.516 7.684l-1.65 4.867 5.076-1.613a13.199 13.199 0 0 0 7.266 2.168c7.282 0 13.208-5.878 13.208-13.105S23.575 2.482 16.292 2.482zm7.933 16.696c-.097-.159-.353-.255-.738-.446s-2.279-1.116-2.631-1.243c-.353-.127-.611-.191-.867.191s-.994 1.243-1.22 1.498c-.225.256-.449.288-.835.096s-1.625-.595-3.096-1.896c-1.145-1.013-1.918-2.263-2.142-2.646s-.023-.589.169-.779c.174-.171.385-.446.578-.669s.257-.382.385-.638c.129-.255.065-.478-.032-.669s-.867-2.071-1.188-2.836c-.321-.764-.641-.637-.866-.637s-.481-.032-.738-.032-.674.096-1.027.478c-.353.383-1.347 1.307-1.347 3.187s1.379 3.697 1.572 3.951c.192.255 2.663 4.238 6.578 5.768s3.915 1.019 4.621.955c.705-.064 2.278-.924 2.6-1.816.32-.893.32-1.658.224-1.817z" style="fill:var(--color1, #fff)"/></symbol><symbol id="youtube" viewBox="0 0 43 32"><path fill="#fff" d="M38.027 1.98c-3.339-.914-16.694-.914-16.694-.914s-13.355 0-16.694.879C2.847 2.437 1.37 3.913.879 5.741 0 9.08 0 16.003 0 16.003s0 6.959.879 10.262a5.347 5.347 0 0 0 3.761 3.761c3.374.914 16.694.914 16.694.914s13.355 0 16.694-.879a5.347 5.347 0 0 0 3.761-3.76c.879-3.339.879-10.262.879-10.262s.035-6.959-.879-10.297a5.346 5.346 0 0 0-3.76-3.761zm-9.841 14.023L17.08 22.399V9.606l11.106 6.396z" style="fill:var(--color1, #fff)"/></symbol></defs></svg>